<svg width="299" height="236" viewBox="0 0 299 236" fill="none" xmlns="http://www.w3.org/2000/svg">
<path d="M151.218 190.945C191.207 190.945 223.624 158.462 223.624 118.392C223.624 78.3214 191.207 45.8381 151.218 45.8381C111.23 45.8381 78.8123 78.3214 78.8123 118.392C78.8123 158.462 111.23 190.945 151.218 190.945Z" fill="#DBE8EC"/>
<path d="M245.818 104.253V96.958C245.818 95.5668 245.267 94.2326 244.285 93.2489C243.303 92.2652 241.972 91.7126 240.584 91.7126H222.107C220.719 91.7126 219.387 91.16 218.405 90.1763C217.424 89.1926 216.872 87.8584 216.872 86.4672V79.1719C216.872 77.7807 217.424 76.4465 218.405 75.4628C219.387 74.4791 220.719 73.9265 222.107 73.9265H222.69C223.378 73.9265 224.058 73.7908 224.693 73.5272C225.329 73.2636 225.906 72.8772 226.392 72.3902C226.878 71.9031 227.263 71.3248 227.526 70.6884C227.79 70.052 227.925 69.37 227.925 68.6811V61.3857C227.925 60.6969 227.79 60.0148 227.526 59.3784C227.263 58.742 226.878 58.1638 226.392 57.6767C225.906 57.1896 225.329 56.8033 224.693 56.5397C224.058 56.2761 223.378 56.1404 222.69 56.1404H88.4467C87.0583 56.1404 85.7269 56.693 84.7452 57.6767C83.7635 58.6604 83.212 59.9946 83.212 61.3857V68.6811C83.212 69.37 83.3474 70.052 83.6104 70.6884C83.8735 71.3248 84.2591 71.9031 84.7452 72.3902C85.2312 72.8772 85.8083 73.2636 86.4434 73.5272C87.0785 73.7908 87.7592 73.9265 88.4467 73.9265C89.1341 73.9265 89.8148 74.0622 90.4499 74.3258C91.085 74.5894 91.6621 74.9757 92.1482 75.4628C92.6342 75.9499 93.0198 76.5281 93.2829 77.1645C93.546 77.8009 93.6814 78.483 93.6814 79.1719V86.4672C93.6814 87.1561 93.546 87.8381 93.2829 88.4745C93.0198 89.1109 92.6342 89.6892 92.1482 90.1763C91.6621 90.6633 91.085 91.0497 90.4499 91.3133C89.8148 91.5769 89.1341 91.7126 88.4467 91.7126H68.2036C66.8153 91.7126 65.4838 92.2652 64.5021 93.2489C63.5204 94.2326 62.9689 95.5668 62.9689 96.958V104.253C62.9689 105.644 63.5204 106.979 64.5021 107.962C65.4838 108.946 66.8153 109.499 68.2036 109.499H76.1467C76.8341 109.499 77.5148 109.634 78.1499 109.898C78.785 110.162 79.3621 110.548 79.8482 111.035C80.3343 111.522 80.7198 112.1 80.9829 112.737C81.246 113.373 81.3814 114.055 81.3814 114.744V122.039C81.3814 122.728 81.246 123.41 80.9829 124.047C80.7198 124.683 80.3343 125.261 79.8482 125.749C79.3621 126.236 78.785 126.622 78.1499 126.886C77.5148 127.149 76.8341 127.285 76.1467 127.285H76.1275C75.44 127.285 74.7593 127.421 74.1242 127.684C73.4891 127.948 72.9121 128.334 72.426 128.821C71.9399 129.308 71.5543 129.887 71.2912 130.523C71.0282 131.159 70.8928 131.841 70.8928 132.53V139.826C70.8928 141.217 71.4443 142.551 72.426 143.535C73.4077 144.518 74.7391 145.071 76.1275 145.071H77.2767C78.665 145.071 79.9965 145.624 80.9782 146.607C81.9599 147.591 82.5114 148.925 82.5114 150.316V157.612C82.5114 158.301 82.376 158.983 82.1129 159.619C81.8498 160.255 81.4643 160.834 80.9782 161.321C80.4921 161.808 79.915 162.194 79.2799 162.458C78.6448 162.721 77.9641 162.857 77.2767 162.857H58.4163C57.028 162.857 55.6965 163.41 54.7148 164.393C53.7332 165.377 53.1816 166.711 53.1816 168.102V175.398C53.1816 176.087 53.317 176.769 53.5801 177.405C53.8432 178.042 54.2288 178.62 54.7148 179.107C55.2009 179.594 55.778 179.98 56.4131 180.244C57.0482 180.507 57.7289 180.643 58.4163 180.643H225.501C226.188 180.643 226.869 180.507 227.504 180.244C228.139 179.98 228.716 179.594 229.202 179.107C229.688 178.62 230.074 178.042 230.337 177.405C230.6 176.769 230.735 176.087 230.735 175.398V168.102C230.735 166.711 230.184 165.377 229.202 164.393C228.22 163.41 226.889 162.857 225.501 162.857H220.962C220.274 162.857 219.594 162.721 218.959 162.458C218.324 162.194 217.746 161.808 217.26 161.321C216.774 160.834 216.389 160.255 216.126 159.619C215.863 158.983 215.727 158.301 215.727 157.612V150.316C215.727 149.627 215.863 148.945 216.126 148.309C216.389 147.673 216.774 147.094 217.26 146.607C217.746 146.12 218.324 145.734 218.959 145.47C219.594 145.207 220.274 145.071 220.962 145.071H231.664C232.351 145.071 233.032 144.935 233.667 144.672C234.302 144.408 234.879 144.022 235.365 143.535C235.851 143.048 236.237 142.469 236.5 141.833C236.763 141.196 236.898 140.514 236.898 139.826V132.53C236.898 131.841 236.763 131.159 236.5 130.523C236.237 129.887 235.851 129.308 235.365 128.821C234.879 128.334 234.302 127.948 233.667 127.684C233.032 127.421 232.351 127.285 231.664 127.285H228.417C227.029 127.285 225.698 126.732 224.716 125.749C223.734 124.765 223.183 123.431 223.183 122.039V114.744C223.183 113.353 223.734 112.019 224.716 111.035C225.698 110.051 227.029 109.499 228.417 109.499H240.584C241.972 109.499 243.303 108.946 244.285 107.962C245.267 106.979 245.818 105.644 245.818 104.253Z" fill="#DBE8EC"/>
<path d="M180.85 54.165H194.797" stroke="#B9D4DB" stroke-width="3" stroke-miterlimit="10" stroke-linecap="round"/>
<path d="M180.85 58.1934H194.797" stroke="#B9D4DB" stroke-width="3" stroke-miterlimit="10" stroke-linecap="round"/>
<path d="M180.85 62.2214H194.797" stroke="#B9D4DB" stroke-width="3" stroke-miterlimit="10" stroke-linecap="round"/>
<path d="M190.512 166.281H204.46" stroke="#B9D4DB" stroke-width="3" stroke-miterlimit="10" stroke-linecap="round"/>
<path d="M190.512 170.309H204.46" stroke="#B9D4DB" stroke-width="3" stroke-miterlimit="10" stroke-linecap="round"/>
<path d="M190.512 174.337H204.46" stroke="#B9D4DB" stroke-width="3" stroke-miterlimit="10" stroke-linecap="round"/>
<path d="M74.7629 99.6541H88.7104" stroke="#B9D4DB" stroke-width="3" stroke-miterlimit="10" stroke-linecap="round"/>
<path d="M74.7629 103.682H88.7104" stroke="#B9D4DB" stroke-width="3" stroke-miterlimit="10" stroke-linecap="round"/>
<path d="M74.7629 107.71H88.7104" stroke="#B9D4DB" stroke-width="3" stroke-miterlimit="10" stroke-linecap="round"/>
<path d="M227.836 152.967L173.795 158.414L119.754 152.967C119.527 152.944 119.317 152.837 119.164 152.668C119.011 152.498 118.926 152.278 118.926 152.049L117.653 148.317L118.926 87.1719L173.795 92.7031L228.664 87.1719L229.874 148.815L228.664 152.049C228.664 152.278 228.579 152.498 228.426 152.668C228.273 152.837 228.063 152.944 227.836 152.967Z" fill="#388E30"/>
<path d="M229.874 148.815L173.795 154.238L117.653 148.317L118.926 84.0147C118.926 83.8858 118.953 83.7584 119.005 83.6406C119.058 83.5229 119.134 83.4174 119.229 83.3309C119.325 83.2445 119.437 83.1791 119.559 83.1389C119.681 83.0986 119.81 83.0845 119.938 83.0974L173.795 88.5266L227.652 83.0974C227.78 83.0845 227.909 83.0986 228.031 83.1389C228.153 83.1791 228.266 83.2445 228.361 83.331C228.456 83.4174 228.533 83.5229 228.585 83.6407C228.637 83.7584 228.664 83.8858 228.664 84.0147L229.874 148.815Z" fill="#28BB4E"/>
<path d="M173.353 149.924L227.28 144.667L225.031 83.3616L177.379 88.1655L173.353 149.924Z" fill="#388E30"/>
<path d="M173.353 81.3361L220.494 76.0261L222.678 145.115L173.353 149.924V81.3361Z" fill="#388E30"/>
<path d="M176.003 80.8935L126.433 80.0085L129.083 147.269L173.353 149.924L176.003 80.8935Z" fill="#388E30"/>
<path d="M173.795 77.6855L220.936 72.3755L224.248 141.627L173.795 146.273V77.6855Z" fill="#28BB4E"/>
<path d="M173.795 143.98V146.273L224.248 141.627L224.139 139.344L173.795 143.98Z" fill="#388E30"/>
<path d="M173.795 77.6855L124.225 76.8005L126.875 144.061L173.795 146.273V77.6855Z" fill="#28BB4E"/>
<path d="M126.875 144.061L173.795 146.273V143.911L126.875 141.698V144.061Z" fill="#388E30"/>
<path d="M129.996 121.62C130.138 127.026 132.032 132.24 135.391 136.473C138.75 140.706 143.393 143.729 148.618 145.086L169.269 146.059V80.5616C169.269 80.5616 153.665 81.6718 137.486 77.0371L128.829 76.8826L129.996 121.62Z" fill="#388E30"/>
<path d="M200.126 143.848C205.224 140.204 209.325 135.334 212.053 129.687C214.782 124.039 216.05 117.795 215.741 111.528L213.849 73.1738L202.416 74.4616C191.965 79.7637 179.185 83.0867 179.185 83.0867V145.777L200.126 143.848Z" fill="#388E30"/>
<path d="M173.795 77.6855C173.795 77.6855 200.181 70.8268 208.13 61.0918L210.351 106.127C210.781 114.857 208.15 123.463 202.912 130.452C197.675 137.442 190.162 142.375 181.675 144.396L173.795 146.273V77.6855Z" fill="#28BB4E"/>
<path d="M180.809 77.6856L173.795 146.273C173.795 146.273 182.727 145.597 183.427 145.386C191.27 138.177 195.736 126.064 194.672 115.303L190.397 72.0764C187.558 73.2436 184.776 74.2538 182.324 75.0828C181.424 76.65 180.809 77.6856 180.809 77.6856Z" fill="#388E30"/>
<path d="M173.795 77.6855C173.795 77.6855 181.413 64.853 182.296 61.0918L187.657 115.303C188.243 121.228 187.272 127.204 184.84 132.637C182.409 138.07 178.601 142.771 173.795 146.273L173.795 77.6855Z" fill="#28BB4E"/>
<path d="M173.795 77.6856C173.795 77.6856 152.046 79.2343 133.278 71.0481L134.523 118.744C134.671 124.417 136.747 129.869 140.407 134.199C144.067 138.529 149.093 141.478 154.653 142.557L173.795 146.273V77.6856Z" fill="#28BB4E"/>
<path d="M173.795 77.6855C174.176 83.4012 174.375 89.1168 174.51 94.8324C174.595 97.6902 174.614 100.548 174.664 103.406L174.715 111.979L174.666 120.553C174.615 123.411 174.599 126.268 174.513 129.126C174.378 134.842 174.178 140.557 173.795 146.273C173.412 140.557 173.212 134.842 173.077 129.126C172.992 126.268 172.975 123.411 172.924 120.553L172.876 111.979L172.927 103.406C172.976 100.548 172.995 97.6902 173.08 94.8324C173.215 89.1168 173.414 83.4012 173.795 77.6855Z" fill="#388E30"/>
<path d="M141.665 87.3445C143.985 87.5411 146.26 87.8209 148.534 88.0887L155.33 88.9041C157.592 89.171 159.852 89.3937 162.121 89.6161C164.393 89.8328 166.664 89.9669 168.989 90.1654C166.724 90.7138 164.406 91.0155 162.076 91.0652C159.752 91.1159 157.428 91.0057 155.119 90.7352C152.815 90.4644 150.53 90.0553 148.276 89.5101C146.015 88.9781 143.803 88.2536 141.665 87.3445Z" fill="#388E30"/>
<path d="M141.665 97.188C143.985 97.3846 146.26 97.6644 148.534 97.9322L155.33 98.7476C157.592 99.0144 159.852 99.2372 162.121 99.4596C164.393 99.6763 166.664 99.8104 168.989 100.009C166.724 100.557 164.406 100.859 162.076 100.909C159.752 100.959 157.428 100.849 155.119 100.579C152.815 100.308 150.53 99.8988 148.276 99.3536C146.015 98.8216 143.803 98.0971 141.665 97.188Z" fill="#388E30"/>
<path d="M141.665 107.031C143.985 107.228 146.26 107.508 148.534 107.776L155.33 108.591C157.592 108.858 159.852 109.081 162.121 109.303C164.393 109.52 166.664 109.654 168.989 109.852C166.724 110.401 164.406 110.703 162.076 110.752C159.752 110.803 157.428 110.693 155.119 110.422C152.815 110.151 150.53 109.742 148.276 109.197C146.015 108.665 143.803 107.941 141.665 107.031Z" fill="#388E30"/>
<path d="M141.665 116.875C143.985 117.072 146.26 117.351 148.534 117.619L155.33 118.435C157.592 118.701 159.852 118.924 162.121 119.147C164.393 119.363 166.664 119.497 168.989 119.696C166.724 120.244 164.406 120.546 162.076 120.596C159.752 120.646 157.428 120.536 155.119 120.266C152.815 119.995 150.53 119.586 148.276 119.041C146.015 118.509 143.803 117.784 141.665 116.875Z" fill="#388E30"/>
<path d="M141.665 126.719C143.985 126.915 146.26 127.195 148.534 127.463L155.33 128.278C157.592 128.545 159.852 128.768 162.121 128.99C164.393 129.207 166.664 129.341 168.989 129.539C166.724 130.088 164.406 130.39 162.076 130.439C159.752 130.49 157.428 130.38 155.119 130.109C152.815 129.838 150.53 129.429 148.276 128.884C146.015 128.352 143.803 127.628 141.665 126.719Z" fill="#388E30"/>
<path d="M206.622 88.6615L195.906 90.4725C195.787 90.4955 195.665 90.495 195.547 90.4708C195.428 90.4466 195.316 90.3993 195.216 90.3316C195.115 90.2639 195.03 90.1771 194.963 90.0761C194.896 89.9751 194.85 89.862 194.827 89.7431L194.472 81.9863C194.449 81.8675 194.449 81.7453 194.473 81.6267C194.497 81.508 194.545 81.3953 194.612 81.295C194.68 81.1946 194.767 81.1086 194.867 81.0418C194.968 80.975 195.081 80.9288 195.2 80.9057L206.054 78.6705C206.172 78.6474 206.294 78.648 206.413 78.6721C206.531 78.6963 206.643 78.7436 206.744 78.8113C206.844 78.879 206.93 78.9659 206.996 79.0668C207.063 79.1678 207.109 79.2809 207.132 79.3998L207.35 87.5809C207.396 87.8209 207.346 88.0696 207.209 88.2722C207.073 88.4749 206.862 88.6149 206.622 88.6615Z" fill="#28BB4E"/>
<path d="M200.538 107.772L189.822 109.583C189.703 109.606 189.581 109.606 189.463 109.582C189.344 109.557 189.232 109.51 189.132 109.442C189.032 109.375 188.946 109.288 188.879 109.187C188.813 109.086 188.766 108.973 188.743 108.854L188.388 101.097C188.341 100.857 188.392 100.608 188.529 100.406C188.665 100.203 188.876 100.063 189.116 100.017L199.97 97.7813C200.088 97.7582 200.21 97.7588 200.329 97.783C200.447 97.8071 200.56 97.8544 200.66 97.9222C200.76 97.9899 200.846 98.0767 200.912 98.1777C200.979 98.2786 201.025 98.3918 201.048 98.5106L201.266 106.692C201.289 106.811 201.289 106.933 201.264 107.051C201.24 107.17 201.193 107.283 201.126 107.383C201.058 107.483 200.971 107.569 200.871 107.636C200.77 107.703 200.657 107.749 200.538 107.772Z" fill="#28BB4E"/>
<path d="M189.116 100.017C188.876 100.063 188.665 100.203 188.529 100.406C188.392 100.609 188.341 100.857 188.388 101.097L188.743 108.854C188.79 109.094 188.93 109.306 189.132 109.442C189.334 109.579 189.582 109.63 189.822 109.583L194.035 108.871L193.079 99.2004L189.116 100.017Z" fill="#388E30"/>
<path d="M204.733 126.883L194.016 128.694C193.777 128.741 193.528 128.69 193.326 128.553C193.124 128.417 192.984 128.205 192.938 127.965L192.582 120.208C192.559 120.089 192.56 119.967 192.584 119.848C192.608 119.73 192.655 119.617 192.723 119.517C192.79 119.416 192.877 119.33 192.978 119.263C193.079 119.197 193.192 119.15 193.31 119.127L204.164 116.892C204.283 116.869 204.405 116.87 204.523 116.894C204.642 116.918 204.754 116.965 204.854 117.033C204.954 117.101 205.04 117.188 205.107 117.289C205.173 117.389 205.22 117.503 205.243 117.621L205.46 125.803C205.484 125.921 205.483 126.044 205.459 126.162C205.435 126.281 205.387 126.394 205.32 126.494C205.252 126.594 205.166 126.68 205.065 126.747C204.964 126.814 204.851 126.86 204.733 126.883Z" fill="#28BB4E"/>
<path d="M193.31 119.127C193.071 119.174 192.859 119.314 192.723 119.517C192.586 119.719 192.536 119.968 192.582 120.208L192.938 127.965C192.964 128.097 193.018 128.221 193.097 128.329C193.176 128.437 193.278 128.527 193.396 128.591C194.3 125.41 194.78 122.123 194.822 118.816L193.31 119.127Z" fill="#388E30"/>
<path d="M143.539 183.657C146.831 183.657 149.5 180.983 149.5 177.683C149.5 174.384 146.831 171.71 143.539 171.71C140.246 171.71 137.577 174.384 137.577 177.683C137.577 180.983 140.246 183.657 143.539 183.657Z" fill="#B9D4DB"/>
<path d="M135.589 166.51C137.297 166.51 138.681 165.124 138.681 163.413C138.681 161.702 137.297 160.315 135.589 160.315C133.882 160.315 132.498 161.702 132.498 163.413C132.498 165.124 133.882 166.51 135.589 166.51Z" fill="#B9D4DB"/>
<path d="M155.811 170.935C158.249 170.935 160.227 168.954 160.227 166.51C160.227 164.067 158.249 162.085 155.811 162.085C153.372 162.085 151.395 164.067 151.395 166.51C151.395 168.954 153.372 170.935 155.811 170.935Z" fill="#B9D4DB"/>
<path d="M80.0992 150.402C84.0167 150.402 87.1924 147.22 87.1924 143.294C87.1924 139.369 84.0167 136.187 80.0992 136.187C76.1818 136.187 73.0061 139.369 73.0061 143.294C73.0061 147.22 76.1818 150.402 80.0992 150.402Z" fill="#B9D4DB"/>
<path d="M66.545 141.934C68.5856 141.934 70.2397 140.276 70.2397 138.232C70.2397 136.187 68.5856 134.53 66.545 134.53C64.5045 134.53 62.8503 136.187 62.8503 138.232C62.8503 140.276 64.5045 141.934 66.545 141.934Z" fill="#B9D4DB"/>
<path d="M69.9388 127.782C71.1158 127.782 72.07 126.826 72.07 125.647C72.07 124.467 71.1158 123.511 69.9388 123.511C68.7618 123.511 67.8076 124.467 67.8076 125.647C67.8076 126.826 68.7618 127.782 69.9388 127.782Z" fill="#B9D4DB"/>
<path d="M81.7367 132.277C84.5583 132.277 86.8457 129.985 86.8457 127.158C86.8457 124.331 84.5583 122.039 81.7367 122.039C78.9151 122.039 76.6277 124.331 76.6277 127.158C76.6277 129.985 78.9151 132.277 81.7367 132.277Z" fill="#B9D4DB"/>
<path d="M124.745 70.357C128.663 70.357 131.838 67.1749 131.838 63.2494C131.838 59.324 128.663 56.1418 124.745 56.1418C120.828 56.1418 117.652 59.324 117.652 63.2494C117.652 67.1749 120.828 70.357 124.745 70.357Z" fill="#B9D4DB"/>
<path d="M125.033 52.4601C127.074 52.4601 128.728 50.8026 128.728 48.7579C128.728 46.7132 127.074 45.0557 125.033 45.0557C122.993 45.0557 121.338 46.7132 121.338 48.7579C121.338 50.8026 122.993 52.4601 125.033 52.4601Z" fill="#B9D4DB"/>
<path d="M149.642 54.1254C151.408 54.1254 152.84 52.6908 152.84 50.9211C152.84 49.1514 151.408 47.7168 149.642 47.7168C147.876 47.7168 146.444 49.1514 146.444 50.9211C146.444 52.6908 147.876 54.1254 149.642 54.1254Z" fill="#B9D4DB"/>
<path d="M138.008 49.943C139.185 49.943 140.14 48.9868 140.14 47.8074C140.14 46.628 139.185 45.6719 138.008 45.6719C136.831 45.6719 135.877 46.628 135.877 47.8074C135.877 48.9868 136.831 49.943 138.008 49.943Z" fill="#B9D4DB"/>
<path d="M140.485 64.5835C143.307 64.5835 145.594 62.2915 145.594 59.4641C145.594 56.6368 143.307 54.3447 140.485 54.3447C137.663 54.3447 135.376 56.6368 135.376 59.4641C135.376 62.2915 137.663 64.5835 140.485 64.5835Z" fill="#B9D4DB"/>
<path d="M116.715 140.66L109.451 136.509L105.307 143.788L112.572 147.939L116.715 140.66Z" fill="#DBE8EC"/>
<path d="M144.445 138.785C149.008 135.337 152.448 130.611 154.331 125.204C156.213 119.797 156.453 113.952 155.021 108.408C153.588 102.865 150.547 97.8709 146.282 94.0588C142.018 90.2468 136.721 87.7875 131.061 86.992C125.402 86.1964 119.634 87.1004 114.487 89.5895C109.34 92.0786 105.045 96.0411 102.146 100.976C99.2464 105.911 97.8723 111.596 98.1974 117.314C98.5226 123.031 100.532 128.523 103.972 133.096C106.257 136.133 109.116 138.689 112.386 140.619C115.657 142.548 119.274 143.813 123.033 144.341C126.791 144.87 130.616 144.651 134.29 143.698C137.964 142.744 141.415 141.075 144.445 138.785ZM108.471 129.702C105.7 126.02 104.08 121.598 103.818 116.994C103.555 112.39 104.661 107.812 106.995 103.838C109.329 99.8635 112.787 96.6722 116.931 94.6673C121.076 92.6625 125.72 91.9342 130.277 92.5745C134.835 93.2148 139.1 95.1949 142.535 98.2645C145.969 101.334 148.418 105.355 149.571 109.819C150.725 114.284 150.531 118.99 149.015 123.344C147.499 127.698 144.728 131.504 141.054 134.28C136.126 138.001 129.926 139.609 123.816 138.751C117.706 137.892 112.187 134.637 108.471 129.702Z" fill="#3086A3"/>
<path opacity="0.76" d="M127.047 138.98C139.897 138.98 150.314 128.542 150.314 115.666C150.314 102.789 139.897 92.3513 127.047 92.3513C114.197 92.3513 103.78 102.789 103.78 115.666C103.78 128.542 114.197 138.98 127.047 138.98Z" fill="white"/>
<path d="M143.658 116.689C143.437 120.3 142.049 123.742 139.704 126.494C137.36 129.246 134.185 131.159 130.66 131.944C127.136 132.73 123.451 132.345 120.163 130.849C116.876 129.352 114.163 126.825 112.435 123.648" stroke="#DBE8EC" stroke-width="10" stroke-miterlimit="10"/>
<path d="M114.768 149.171L103.132 142.521C102.691 142.268 102.129 142.422 101.877 142.865L84.8582 172.764C84.6065 173.206 84.7602 173.769 85.2016 174.021L96.8372 180.671C97.2785 180.924 97.8404 180.77 98.0921 180.327L115.111 150.428C115.363 149.986 115.209 149.423 114.768 149.171Z" fill="#3086A3"/>
<path d="M98.092 180.328L115.111 150.428C115.171 150.323 115.209 150.207 115.224 150.087C115.24 149.967 115.231 149.845 115.199 149.728C115.167 149.612 115.113 149.502 115.039 149.407C114.965 149.311 114.872 149.231 114.767 149.171L111.874 147.517C112.086 147.638 112.241 147.839 112.305 148.075C112.369 148.31 112.338 148.562 112.217 148.774L95.198 178.674C95.1382 178.779 95.0583 178.871 94.9628 178.945C94.8673 179.019 94.7582 179.074 94.6417 179.106C94.5252 179.138 94.4035 179.147 94.2836 179.131C94.1638 179.116 94.0481 179.078 93.9431 179.018L96.8371 180.672C96.942 180.732 97.0577 180.77 97.1776 180.785C97.2975 180.801 97.4191 180.792 97.5357 180.76C97.6522 180.728 97.7613 180.673 97.8568 180.599C97.9522 180.525 98.0322 180.433 98.092 180.328Z" fill="#25788E"/>
<path d="M87.6566 174.363L104.675 144.464C104.735 144.359 104.815 144.267 104.911 144.192C105.006 144.118 105.115 144.064 105.232 144.032C105.348 144 105.47 143.991 105.59 144.006C105.71 144.021 105.825 144.06 105.93 144.12L109.145 145.957L103.132 142.521C102.92 142.4 102.669 142.368 102.433 142.432C102.198 142.497 101.998 142.652 101.877 142.865L84.8581 172.764C84.7373 172.976 84.7055 173.228 84.7699 173.464C84.8343 173.7 84.9895 173.9 85.2015 174.021L87.9999 175.621C87.8949 175.561 87.8028 175.481 87.7287 175.385C87.6547 175.289 87.6002 175.18 87.5683 175.063C87.5364 174.947 87.5278 174.825 87.5429 174.705C87.5581 174.584 87.5967 174.468 87.6566 174.363Z" fill="#409CB5"/>
<path d="M91.2144 177.458L96.8369 180.671H96.8374L91.2144 177.458Z" fill="#409CB5"/>
<path d="M85.1429 171.155L99.3293 179.263C99.5412 179.384 99.6965 179.585 99.7609 179.82C99.8253 180.056 99.7935 180.308 99.6726 180.52L98.3185 182.899C97.5221 184.299 96.2038 185.323 94.6534 185.748C93.1031 186.173 91.4477 185.964 90.0515 185.166L84.7955 182.162C84.1042 181.767 83.4973 181.239 83.0095 180.609C82.5217 179.979 82.1625 179.259 81.9525 178.489C81.7425 177.72 81.6857 176.917 81.7855 176.126C81.8852 175.335 82.1395 174.571 82.5338 173.878L83.8879 171.499C84.0088 171.287 84.209 171.131 84.4443 171.067C84.6797 171.002 84.931 171.034 85.1429 171.155Z" fill="#DBE8EC"/>
<path d="M85.2847 175.471L86.6389 173.092C86.7598 172.879 86.9599 172.724 87.1953 172.659C87.4306 172.595 87.6819 172.627 87.8939 172.748L99.4749 179.367C99.4298 179.327 99.381 179.293 99.3292 179.263L85.1428 171.155C84.9308 171.034 84.6795 171.002 84.4442 171.066C84.2088 171.131 84.0087 171.286 83.8878 171.499L82.5336 173.878C81.7373 175.277 81.5282 176.936 81.9524 178.489C82.3766 180.043 83.3992 181.364 84.7954 182.162L87.2467 183.563C85.9514 182.719 85.0267 181.411 84.6619 179.907C84.2972 178.403 84.52 176.816 85.2847 175.471Z" fill="#E8EEEF"/>
<path d="M98.3183 182.899L99.6725 180.52C99.7934 180.308 99.8251 180.056 99.7607 179.82C99.6964 179.585 99.5411 179.384 99.3292 179.263L96.4228 177.602C96.634 177.723 96.7884 177.924 96.8523 178.159C96.9163 178.395 96.8844 178.646 96.7638 178.858L95.4097 181.237C94.6133 182.636 93.295 183.66 91.7446 184.085C90.1943 184.511 88.5389 184.301 87.1427 183.503L84.7905 182.159L84.7954 182.162L90.0515 185.166C90.7428 185.561 91.505 185.816 92.2946 185.916C93.0842 186.016 93.8857 185.959 94.6533 185.748C95.421 185.538 96.1397 185.178 96.7686 184.689C97.3974 184.2 97.924 183.592 98.3183 182.899Z" fill="#BAD5DB"/>
</svg>
